<svg width="24" height="24" viewBox="0 0 24 24" fill="none" xmlns="http://www.w3.org/2000/svg">
<path d="M17.3423 3.22724C13.7357 1.00659 9.07204 1.96546 6.29204 4.75227C5.76551 5.28009 4.98028 6.1454 4.31866 7.0474C4.21006 7.19547 4.10309 7.34681 4 7.49988V6.00004C4 5.44775 3.55228 5.00004 3 5.00004C2.44772 5.00004 2 5.44775 2 6.00004V11C2 11.5523 2.44772 12 3 12H7C7.55228 12 8 11.5523 8 11C8 10.4478 7.55228 10 7 10H4.99954C4.99985 9.98991 5 9.97976 5 9.96956C5 9.90787 5.03818 9.7094 5.2202 9.35008C5.38962 9.01564 5.63678 8.63189 5.93135 8.2303C6.51973 7.42813 7.23451 6.63939 7.70798 6.16475C9.92797 3.93933 13.5855 3.26283 16.2938 4.93031C19.0577 6.6321 20.5429 10.2267 19.8177 13.7762C19.094 17.3183 16.3882 19.7857 13.3005 19.9836C10.0192 20.194 6.47572 18.4132 5.45343 15.1815C5.28687 14.6549 4.72497 14.3631 4.1984 14.5296C3.67184 14.6962 3.38 15.2581 3.54656 15.7847C4.92197 20.1328 9.50626 22.2309 13.4285 21.9795C17.5445 21.7157 20.8998 18.4708 21.7772 14.1766C22.653 9.88997 20.8933 5.41356 17.3423 3.22724Z" fill="#CCCCCC"/>
<path d="M11 9.86855V14.1315C11 14.9302 11.8901 15.4066 12.5547 14.9636L15.7519 12.8321C16.3457 12.4363 16.3457 11.5638 15.7519 11.168L12.5547 9.0365C11.8901 8.59346 11 9.06985 11 9.86855Z" fill="#CCCCCC"/>
</svg>
