<svg width="16" height="16" viewBox="0 0 16 16" fill="none" xmlns="http://www.w3.org/2000/svg">
<path d="M1.50788 14.4921C3.51838 16.5026 6.78954 16.5026 8.80005 14.4921C10.1733 13.1188 10.6503 11.095 10.0557 9.25894L15.8627 3.45196C15.9506 3.36406 16 3.24506 16 3.12053V0.468711C16 0.209617 15.7903 -4.00543e-05 15.5312 -4.00543e-05H12.8794C12.7549 -4.00543e-05 12.6359 0.0493972 12.548 0.137304L11.8852 0.800618C11.784 0.901774 11.7346 1.04368 11.7511 1.18606L11.8335 1.89834L10.8465 1.99128C10.6222 2.01234 10.4451 2.18949 10.424 2.41381L10.3311 3.40075L9.61877 3.3179C9.48649 3.30006 9.35327 3.34446 9.25302 3.43325C9.15324 3.5225 9.09602 3.64978 9.09602 3.78344V4.65622H8.23908C8.11458 4.65622 7.99555 4.70565 7.90767 4.79356L6.70558 5.97975C4.86995 5.38466 2.88116 5.82572 1.50788 7.19994C-0.502626 9.21041 -0.502626 12.4816 1.50788 14.4921ZM2.83397 11.1774C3.38238 10.629 4.2741 10.629 4.82251 11.1774C5.37092 11.7259 5.37092 12.6176 4.82251 13.166C4.2741 13.7144 3.38238 13.7144 2.83397 13.166C2.28557 12.6176 2.2856 11.7259 2.83397 11.1774Z" fill="#1AA294"/>
</svg>
