<svg width="30" height="30" viewBox="0 0 30 30" fill="none" xmlns="http://www.w3.org/2000/svg">
<path d="M8.75 13.75V8.75C8.75 5.29822 11.5482 2.5 15 2.5C18.4518 2.5 21.25 5.29822 21.25 8.75V13.75" stroke="black" stroke-width="2" stroke-linecap="round" stroke-linejoin="round"/>
<path fill-rule="evenodd" clip-rule="evenodd" d="M5.75 13.75C4.64543 13.75 3.75 14.6454 3.75 15.75V25.5C3.75 26.6046 4.64543 27.5 5.75 27.5H24.25C25.3546 27.5 26.25 26.6046 26.25 25.5V15.75C26.25 14.6454 25.3546 13.75 24.25 13.75H5.75ZM15.625 23.75C17.3509 23.75 18.75 22.3509 18.75 20.625C18.75 18.8991 17.3509 17.5 15.625 17.5C13.8991 17.5 12.5 18.8991 12.5 20.625C12.5 22.3509 13.8991 23.75 15.625 23.75Z" fill="black"/>
<path d="M4.75 15.75C4.75 15.1977 5.19772 14.75 5.75 14.75V12.75C4.09315 12.75 2.75 14.0931 2.75 15.75H4.75ZM4.75 25.5V15.75H2.75V25.5H4.75ZM5.75 26.5C5.19772 26.5 4.75 26.0523 4.75 25.5H2.75C2.75 27.1569 4.09315 28.5 5.75 28.5V26.5ZM24.25 26.5H5.75V28.5H24.25V26.5ZM25.25 25.5C25.25 26.0523 24.8023 26.5 24.25 26.5V28.5C25.9069 28.5 27.25 27.1569 27.25 25.5H25.25ZM25.25 15.75V25.5H27.25V15.75H25.25ZM24.25 14.75C24.8023 14.75 25.25 15.1977 25.25 15.75H27.25C27.25 14.0931 25.9069 12.75 24.25 12.75V14.75ZM5.75 14.75H24.25V12.75H5.75V14.75ZM17.75 20.625C17.75 21.7986 16.7986 22.75 15.625 22.75V24.75C17.9032 24.75 19.75 22.9032 19.75 20.625H17.75ZM15.625 18.5C16.7986 18.5 17.75 19.4514 17.75 20.625H19.75C19.75 18.3468 17.9032 16.5 15.625 16.5V18.5ZM13.5 20.625C13.5 19.4514 14.4514 18.5 15.625 18.5V16.5C13.3468 16.5 11.5 18.3468 11.5 20.625H13.5ZM15.625 22.75C14.4514 22.75 13.5 21.7986 13.5 20.625H11.5C11.5 22.9032 13.3468 24.75 15.625 24.75V22.75Z" fill="black"/>
</svg>
