<svg width="79" height="81" viewBox="0 0 79 81" fill="none" xmlns="http://www.w3.org/2000/svg">
<rect x="9" y="10" width="70" height="71" rx="35" fill="#1AA294"/>
<rect y="8" width="71" height="71" rx="35.5" fill="#2A88AA"/>
<rect x="2" width="71" height="71" rx="35.5" fill="#F5C577"/>
<circle cx="38" cy="44" r="30" fill="#2C1A32"/>
<path fill-rule="evenodd" clip-rule="evenodd" d="M38.6549 30.7114C38.7482 29.8448 37.6167 29.4347 37.1331 30.1597L25.531 47.5527C25.1616 48.1064 25.5586 48.8484 26.2243 48.8484H36.6427C37.1428 48.8484 37.5302 49.2858 37.4699 49.7822L36.5403 57.4375C36.4363 58.2936 37.5418 58.7244 38.0446 58.0238L49.5534 41.9858C49.949 41.4344 49.555 40.6666 48.8763 40.6666H38.5112C38.0156 40.6666 37.6296 40.2368 37.6826 39.7441L38.6549 30.7114Z" fill="white"/>
</svg>
