<svg width="40" height="40" viewBox="0 0 40 40" fill="none" xmlns="http://www.w3.org/2000/svg">
<path d="M40 20C40 31.0457 31.0457 40 20 40C8.95431 40 0 31.0457 0 20C0 8.95431 8.95431 0 20 0C31.0457 0 40 8.95431 40 20Z" fill="#2C1A32"/>
<path fill-rule="evenodd" clip-rule="evenodd" d="M20.0151 3.4353C10.8592 3.4353 3.43939 10.8454 3.43939 19.983C3.43939 29.1207 10.8592 36.5308 20.0151 36.5308C29.171 36.5308 36.5908 29.1207 36.5908 19.983C36.5908 10.8454 29.171 3.4353 20.0151 3.4353ZM1.56439 19.983C1.56439 9.80703 9.82646 1.5603 20.0151 1.5603C30.2037 1.5603 38.4658 9.80703 38.4658 19.983C38.4658 30.159 30.2037 38.4058 20.0151 38.4058C9.82646 38.4058 1.56439 30.159 1.56439 19.983Z" fill="#6B5F6F"/>
<path fill-rule="evenodd" clip-rule="evenodd" d="M20.0151 3.4353C26.2713 3.4353 31.7188 6.895 34.5413 12.0059C34.7916 12.4591 35.3619 12.6236 35.8152 12.3733C36.2684 12.123 36.4329 11.5527 36.1826 11.0994C33.0429 5.4142 26.9801 1.5603 20.0151 1.5603C19.4973 1.5603 19.0776 1.98004 19.0776 2.4978C19.0776 3.01557 19.4973 3.4353 20.0151 3.4353Z" fill="white"/>
<path d="M17.5494 14.3617C17.3731 14.2484 17.149 14.2404 16.965 14.3408C16.7811 14.4412 16.6667 14.6341 16.6667 14.8437V25.1562C16.6667 25.3657 16.7811 25.5586 16.965 25.659C17.149 25.7594 17.3731 25.7514 17.5494 25.6381L25.5702 20.4818C25.7342 20.3764 25.8333 20.1949 25.8333 19.9999C25.8333 19.805 25.7342 19.6234 25.5702 19.518L17.5494 14.3617Z" fill="white"/>
</svg>
