<svg width="58" height="23" viewBox="0 0 58 23" fill="none" xmlns="http://www.w3.org/2000/svg">
<path d="M0 5.81787C0 3.05645 2.23858 0.817871 5 0.817871H58V11.8179C58 14.5793 55.7614 16.8179 53 16.8179H0V5.81787Z" fill="#9800E0"/>
<path d="M19.87 9.21787C20.2767 9.30454 20.6033 9.50787 20.85 9.82787C21.0967 10.1412 21.22 10.5012 21.22 10.9079C21.22 11.4945 21.0133 11.9612 20.6 12.3079C20.1933 12.6479 19.6233 12.8179 18.89 12.8179H15.62V5.79787H18.78C19.4933 5.79787 20.05 5.9612 20.45 6.28787C20.8567 6.61454 21.06 7.05787 21.06 7.61787C21.06 8.0312 20.95 8.37454 20.73 8.64787C20.5167 8.9212 20.23 9.1112 19.87 9.21787ZM17.33 8.63787H18.45C18.73 8.63787 18.9433 8.57787 19.09 8.45787C19.2433 8.3312 19.32 8.14787 19.32 7.90787C19.32 7.66787 19.2433 7.48454 19.09 7.35787C18.9433 7.2312 18.73 7.16787 18.45 7.16787H17.33V8.63787ZM18.59 11.4379C18.8767 11.4379 19.0967 11.3745 19.25 11.2479C19.41 11.1145 19.49 10.9245 19.49 10.6779C19.49 10.4312 19.4067 10.2379 19.24 10.0979C19.08 9.95787 18.8567 9.88787 18.57 9.88787H17.33V11.4379H18.59ZM26.5818 11.5779H23.9618L23.5418 12.8179H21.7518L24.2918 5.79787H26.2718L28.8118 12.8179H27.0018L26.5818 11.5779ZM26.1418 10.2579L25.2718 7.68787L24.4118 10.2579H26.1418ZM33.1648 12.8179L31.7048 10.1679H31.2948V12.8179H29.5848V5.79787H32.4548C33.0082 5.79787 33.4782 5.89454 33.8648 6.08787C34.2582 6.2812 34.5515 6.54787 34.7448 6.88787C34.9382 7.2212 35.0348 7.59454 35.0348 8.00787C35.0348 8.47454 34.9015 8.8912 34.6348 9.25787C34.3748 9.62454 33.9882 9.88454 33.4748 10.0379L35.0948 12.8179H33.1648ZM31.2948 8.95787H32.3548C32.6682 8.95787 32.9015 8.8812 33.0548 8.72787C33.2148 8.57454 33.2948 8.35787 33.2948 8.07787C33.2948 7.8112 33.2148 7.6012 33.0548 7.44787C32.9015 7.29454 32.6682 7.21787 32.3548 7.21787H31.2948V8.95787ZM37.7883 5.79787V9.99787C37.7883 10.4179 37.8916 10.7412 38.0983 10.9679C38.3049 11.1945 38.6083 11.3079 39.0083 11.3079C39.4083 11.3079 39.7149 11.1945 39.9283 10.9679C40.1416 10.7412 40.2483 10.4179 40.2483 9.99787V5.79787H41.9583V9.98787C41.9583 10.6145 41.8249 11.1445 41.5583 11.5779C41.2916 12.0112 40.9316 12.3379 40.4783 12.5579C40.0316 12.7779 39.5316 12.8879 38.9783 12.8879C38.4249 12.8879 37.9283 12.7812 37.4883 12.5679C37.0549 12.3479 36.7116 12.0212 36.4583 11.5879C36.2049 11.1479 36.0783 10.6145 36.0783 9.98787V5.79787H37.7883Z" fill="white"/>
<path d="M2 22.8179L0 16.8179H2V22.8179Z" fill="#511C6A"/>
</svg>
